<svg width="145" height="48" viewBox="0 0 145 48" fill="none" xmlns="http://www.w3.org/2000/svg">
<g clip-path="url(#clip0_105_8573)">
<path d="M11.193 2.09802H15.9117L27.177 27.8369H20.7388L18.5074 22.3838H8.4497L6.2906 27.8369H0L11.193 2.09802ZM13.3882 9.58624L10.2414 17.5832H16.5682L13.3852 9.58624H13.3882Z" fill="#003770"/>
<path d="M39.8666 15.3685C39.0626 14.3748 38.0026 13.878 36.6836 13.878C36.2199 13.878 35.7682 13.9857 35.3316 14.2042C34.8919 14.4227 34.6721 14.7998 34.6721 15.3325C34.6721 15.7695 34.8979 16.0897 35.3496 16.2963C35.8013 16.5028 36.3735 16.6853 37.0691 16.841C37.7647 16.9996 38.5085 17.1672 39.3004 17.3498C40.0924 17.5323 40.8362 17.8166 41.5318 18.2027C42.2274 18.5918 42.7996 19.1186 43.2513 19.783C43.703 20.4504 43.9288 21.3393 43.9288 22.4556C43.9288 23.572 43.6789 24.5327 43.179 25.2719C42.6791 26.0112 42.0377 26.6038 41.2578 27.0527C40.4779 27.5016 39.5986 27.8159 38.6229 27.9985C37.6472 28.181 36.6836 28.2708 35.7321 28.2708C34.4884 28.2708 33.2327 28.0942 31.9649 27.7441C30.6972 27.3939 29.6251 26.7684 28.7458 25.8705L32.0733 22.1982C32.5853 22.8297 33.1514 23.3056 33.7747 23.6348C34.3981 23.9611 35.1208 24.1257 35.9519 24.1257C36.5843 24.1257 37.1594 24.0359 37.6713 23.8533C38.1833 23.6707 38.4392 23.3385 38.4392 22.8537C38.4392 22.3928 38.2134 22.0486 37.7617 21.8181C37.31 21.5877 36.7378 21.3932 36.0422 21.2375C35.3466 21.0789 34.6028 20.9113 33.8109 20.7287C33.0189 20.5462 32.2751 20.2738 31.5795 19.9117C30.8839 19.5495 30.3117 19.0348 29.86 18.3673C29.4083 17.6999 29.1825 16.811 29.1825 15.6947C29.1825 14.6532 29.3963 13.7553 29.8239 13.0041C30.2515 12.2529 30.8116 11.6363 31.5072 11.1515C32.2028 10.6666 33.0008 10.3105 33.9042 10.08C34.8046 9.84957 35.72 9.73584 36.6475 9.73584C37.8189 9.73584 38.9993 9.90643 40.1948 10.2446C41.3903 10.5828 42.4021 11.1904 43.2302 12.0613L39.8666 15.3685Z" fill="#003770"/>
<path d="M59.5816 14.5305H54.7545V20.4205C54.7545 20.9054 54.7786 21.3483 54.8267 21.7464C54.8749 22.1474 54.9863 22.4916 55.155 22.7819C55.3266 23.0722 55.5886 23.2967 55.9409 23.4553C56.2932 23.6139 56.763 23.6918 57.3502 23.6918C57.6423 23.6918 58.0278 23.6618 58.5035 23.602C58.9793 23.5421 59.3377 23.4014 59.5816 23.183V27.7262C58.9733 27.9447 58.3379 28.0883 57.6784 28.1631C57.019 28.235 56.3746 28.2709 55.7392 28.2709C54.8117 28.2709 53.9595 28.1721 53.1796 27.9806C52.3996 27.786 51.7161 27.4778 51.1319 27.0528C50.5477 26.6278 50.09 26.0771 49.7617 25.3977C49.4335 24.7183 49.2679 23.8953 49.2679 22.9256V14.5275H45.7567V10.1639H49.2679V4.92932H54.7545V10.1639H59.5816V14.5275V14.5305Z" fill="#003770"/>
<path d="M79.9198 24.7841C79.0405 25.9005 77.9323 26.7594 76.5923 27.364C75.2523 27.9685 73.8611 28.2738 72.4216 28.2738C70.9823 28.2738 69.7687 28.0553 68.5642 27.6184C67.3566 27.1814 66.3087 26.5589 65.4174 25.7448C64.526 24.9337 63.8274 23.9581 63.3155 22.8178C62.8036 21.6775 62.5476 20.4055 62.5476 19.0018C62.5476 17.5982 62.8036 16.3232 63.3155 15.1859C63.8274 14.0456 64.529 13.0729 65.4174 12.2589C66.3087 11.4478 67.3566 10.8223 68.5642 10.3853C69.7717 9.94834 71.0575 9.72986 72.4216 9.72986C73.6894 9.72986 74.8427 9.94834 75.8786 10.3853C76.9145 10.8223 77.7938 11.4448 78.5135 12.2589C79.2332 13.0699 79.7873 14.0456 80.1788 15.1859C80.5672 16.3262 80.7629 17.5982 80.7629 19.0018V20.7108H68.0342C68.254 21.7523 68.7298 22.5843 69.4615 23.2009C70.1933 23.8204 71.0937 24.1287 72.1687 24.1287C73.0691 24.1287 73.8339 23.9281 74.4543 23.5301C75.0746 23.129 75.6196 22.6143 76.0834 21.9858L79.9228 24.7841H79.9198ZM75.2733 17.0026C75.2974 16.0808 74.9933 15.2936 74.3579 14.6382C73.7225 13.9828 72.9065 13.6565 71.9067 13.6565C71.2984 13.6565 70.7594 13.7523 70.2987 13.9468C69.8349 14.1414 69.4405 14.3898 69.1092 14.6921C68.781 14.9944 68.525 15.3475 68.3413 15.7456C68.1577 16.1436 68.0553 16.5626 68.0312 16.9996H75.2733V17.0026Z" fill="#003770"/>
<path d="M84.8192 10.1699H90.086V12.5702H90.1582C90.3299 12.232 90.5738 11.8908 90.89 11.5526C91.2062 11.2144 91.5856 10.9121 92.0252 10.6427C92.4649 10.3764 92.9648 10.1579 93.5249 9.98731C94.085 9.81671 94.6963 9.73291 95.3527 9.73291C96.7439 9.73291 97.8642 9.94541 98.7164 10.3704C99.5685 10.7954 100.234 11.382 100.71 12.1332C101.186 12.8844 101.508 13.7703 101.679 14.7879C101.851 15.8055 101.935 16.9099 101.935 18.095V27.8369H96.4488V19.1845C96.4488 18.6757 96.4308 18.1489 96.3946 17.6042C96.3585 17.0595 96.2471 16.5567 96.0664 16.0958C95.8827 15.6349 95.6027 15.2608 95.2263 14.9675C94.8468 14.6772 94.3048 14.5305 93.5971 14.5305C92.8895 14.5305 92.3173 14.6592 91.8777 14.9136C91.438 15.168 91.1038 15.5092 90.8719 15.9312C90.64 16.3562 90.4865 16.835 90.4142 17.3678C90.3419 17.9005 90.3058 18.4572 90.3058 19.0408V27.8369H84.8192V10.1699Z" fill="#003770"/>
<path d="M69.9554 1.07446C69.7928 0.903865 69.5971 0.766191 69.3682 0.667426C69.1394 0.568661 68.8774 0.517781 68.5762 0.517781C68.2751 0.517781 67.989 0.574646 67.7421 0.688376C67.4952 0.802106 67.2874 0.951751 67.1158 1.1433C66.9441 1.33185 66.8146 1.55332 66.7243 1.80473C66.634 2.05613 66.5888 2.3195 66.5888 2.59485C66.5888 2.87019 66.634 3.13357 66.7243 3.38497C66.8146 3.63638 66.9471 3.85785 67.1158 4.0464C67.2844 4.23495 67.4952 4.38759 67.7421 4.50132C67.989 4.61505 68.2661 4.67192 68.5762 4.67192C68.8262 4.67192 69.0671 4.64199 69.2959 4.57914C69.5248 4.51928 69.7326 4.43548 69.9133 4.33073V2.72354H68.7599V2.27461H70.4071V4.63002C70.1331 4.78864 69.835 4.90835 69.5097 4.99216C69.1845 5.07596 68.8744 5.11786 68.5762 5.11786C68.2179 5.11786 67.8836 5.05501 67.5765 4.9293C67.2693 4.8036 67.0013 4.62702 66.7785 4.40256C66.5526 4.17809 66.378 3.91172 66.2485 3.60645C66.122 3.29818 66.0558 2.96297 66.0558 2.59485C66.0558 2.22672 66.119 1.89152 66.2485 1.58325C66.375 1.27498 66.5526 1.00862 66.7785 0.787142C67.0043 0.562675 67.2693 0.389087 67.5765 0.260393C67.8836 0.134691 68.2179 0.0688477 68.5762 0.0688477C68.9617 0.0688477 69.2959 0.12272 69.576 0.227471C69.856 0.335215 70.106 0.496831 70.3228 0.712319L69.9554 1.07147V1.07446Z" fill="#58595B"/>
<path d="M72.6686 4.54918H75.2583V4.99811H72.1777V0.191528H75.177V0.640462H72.6716V2.27757H75.0144V2.72651H72.6716V4.55217L72.6686 4.54918Z" fill="#58595B"/>
<path d="M79.0857 4.10024L80.7178 0.191528H81.4677V4.99811H80.9768V0.843979H80.9617L79.2122 4.99811H78.9532L77.2037 0.843979H77.1886V4.99811H76.6978V0.191528H77.4476L79.0797 4.10024H79.0857Z" fill="#58595B"/>
<path d="M83.7501 4.54918H86.3398V4.99811H83.2593V0.191528H86.2585V0.640462H83.7531V2.27757H86.0959V2.72651H83.7531V4.55217L83.7501 4.54918Z" fill="#58595B"/>
<path d="M88.2792 4.54918H90.8689V4.99811H87.7883V0.191528H90.7876V0.640462H88.2822V2.27757H90.625V2.72651H88.2822V4.55217L88.2792 4.54918Z" fill="#58595B"/>
<path d="M95.8105 4.26485H95.8255V0.191528H96.3163V4.99811H95.702L92.8202 0.885879H92.8052V4.99811H92.3143V0.191528H92.9286L95.8105 4.26485Z" fill="#58595B"/>
<path d="M99.6559 4.99811H99.165V0.640462H97.548V0.191528H101.276V0.640462H99.6589V4.99811H99.6559Z" fill="#58595B"/>
<path d="M102.995 4.54918H105.585V4.99811H102.505V0.191528H105.504V0.640462H102.998V2.27757H105.341V2.72651H102.998V4.55217L102.995 4.54918Z" fill="#58595B"/>
<path fill-rule="evenodd" clip-rule="evenodd" d="M134.271 33.0206L125.613 33.0326L116.953 33.0476L121.295 40.4939L125.637 47.9372L129.956 40.4789L134.271 33.0206Z" fill="#8BC53F"/>
<path fill-rule="evenodd" clip-rule="evenodd" d="M145 47.9012L140.661 40.4578L136.318 33.0085L132 40.4698L127.682 47.9281L136.342 47.9161L145 47.9012Z" fill="#003770"/>
<path fill-rule="evenodd" clip-rule="evenodd" d="M123.695 14.4856L119.473 7.2428L115.251 0L111.051 7.25477L106.853 14.5095L115.272 14.4976L123.695 14.4856Z" fill="#003770"/>
<path fill-rule="evenodd" clip-rule="evenodd" d="M123.695 16.5028L119.509 23.7725L115.288 31.0153L111.09 23.7606L106.889 16.5058L115.312 16.5178L123.695 16.5028Z" fill="#8BC53F"/>
<path fill-rule="evenodd" clip-rule="evenodd" d="M104.941 47.9731L100.601 40.5268L96.2591 33.0804L91.9409 40.5387L87.6257 48L96.2832 47.985L104.941 47.9731Z" fill="#8BC53F"/>
<path fill-rule="evenodd" clip-rule="evenodd" d="M134.171 30.9885L129.95 23.7457L125.728 16.5059L121.527 23.7606L117.329 31.0154L125.749 31.0034L134.171 30.9885Z" fill="#0095A2"/>
<path fill-rule="evenodd" clip-rule="evenodd" d="M115.613 33.0446L106.955 33.0595L98.2948 33.0715L102.634 40.5178L106.976 47.9641L111.295 40.5058L115.613 33.0446Z" fill="#0095A2"/>
</g>
<defs>
<clipPath id="clip0_105_8573">
<rect width="145" height="48" fill="white"/>
</clipPath>
</defs>
</svg>
