<?xml version="1.0" encoding="UTF-8"?>
<svg id="uuid-a5d2f41f-1df1-46d5-ac8a-51f17ccaf91a" data-name="Laag 1" xmlns="http://www.w3.org/2000/svg" viewBox="0 0 671.7 287.84">
  <defs>
    <style>
      .uuid-2df5370e-d36e-4207-8074-46fee8ba42a8, .uuid-d20edf95-0318-462a-92e7-ef66d55b92d9 {
        fill: #272120;
      }

      .uuid-ce599fd2-3cc1-4427-a3a0-62ff3efaf2e7 {
        fill: #5b84c1;
      }

      .uuid-09eb291b-f407-4db5-b8f3-999dd8a45336 {
        fill: #a7a8af;
      }

      .uuid-d20edf95-0318-462a-92e7-ef66d55b92d9 {
        fill-rule: evenodd;
      }

      .uuid-a526ae31-2da5-4e50-87a6-82b78d2a022e {
        fill: #70a9a0;
      }
    </style>
  </defs>
  <polygon class="uuid-09eb291b-f407-4db5-b8f3-999dd8a45336" points="186.8 116.24 153.66 116.24 145.85 124.05 138.04 116.24 104.89 116.24 115.94 127.29 133.46 127.29 145.85 139.69 158.23 127.29 175.76 127.29 186.8 116.24"/>
  <polygon class="uuid-09eb291b-f407-4db5-b8f3-999dd8a45336" points="246.63 94.14 213.48 94.14 205.68 101.96 197.86 94.14 164.71 94.14 175.76 105.2 193.28 105.2 205.68 117.58 218.06 105.2 235.58 105.2 246.63 94.14"/>
  <polygon class="uuid-09eb291b-f407-4db5-b8f3-999dd8a45336" points="164.71 72.05 131.56 72.05 123.76 79.86 115.94 72.05 82.79 72.05 93.84 83.1 111.37 83.1 123.76 95.48 136.14 83.1 153.66 83.1 164.71 72.05"/>
  <g>
    <path class="uuid-ce599fd2-3cc1-4427-a3a0-62ff3efaf2e7" d="m164.06,261.38c-25.89,25.88-67.86,25.88-93.76,0-12.93-12.94-33.93-12.94-46.87,0l-7.81-7.81c17.27-17.27,45.25-17.27,62.51,0,21.58,21.57,56.55,21.57,78.13,0l7.81,7.81Z"/>
    <path class="uuid-ce599fd2-3cc1-4427-a3a0-62ff3efaf2e7" d="m148.44,245.75c-17.27,17.25-45.25,17.25-62.5,0-21.58-21.57-56.55-21.57-78.13,0l-7.81-7.81c25.88-25.88,67.86-25.88,93.74,0,12.94,12.94,33.93,12.94,46.87,0l7.82,7.81Z"/>
    <path class="uuid-d20edf95-0318-462a-92e7-ef66d55b92d9" d="m71.75,223.35c3.81,1.55,7.53,3.46,11.05,5.74v-118.37l-5.51-24.92-5.53,24.92v-11.04L49.65,0l-22.1,99.67v11.04l-5.53-24.92-5.53,24.92v115.16c3.57-1.85,7.27-3.34,11.05-4.49v-105.15h11.04v-15.36l11.05-49.84,11.05,49.84v15.36h11.05v107.1Z"/>
    <path class="uuid-a526ae31-2da5-4e50-87a6-82b78d2a022e" d="m156.26,206.68c-4.68,4.68-10.91,6.82-17.03,6.42.38,6.11-1.76,12.35-6.43,17.02-8.63,8.63-22.61,8.63-31.25,0-4.66-4.67-6.8-10.91-6.42-17.02-6.11.39-12.35-1.74-17.01-6.42-8.63-8.64-8.63-22.62,0-31.25,4.66-4.66,10.9-6.8,17.01-6.41-.38-6.11,1.76-12.34,6.42-17.01,8.64-8.64,22.62-8.64,31.25,0,4.67,4.67,6.81,10.9,6.43,17.01,6.11-.39,12.34,1.75,17.03,6.41,8.62,8.63,8.62,22.62,0,31.25m-39.08-7.81l-7.81,7.81c-4.32,4.32-4.32,11.32,0,15.62,4.31,4.32,11.31,4.32,15.62,0,4.32-4.31,4.32-11.3,0-15.62l-7.81-7.81Zm7.81-7.82l7.81,7.82c4.32,4.32,11.31,4.32,15.62,0,4.32-4.31,4.32-11.31,0-15.62-4.31-4.32-11.31-4.32-15.62,0l-7.81,7.8Zm-7.81-7.8l7.81-7.83c4.32-4.31,4.32-11.3,0-15.62-4.31-4.31-11.31-4.31-15.62,0-4.32,4.31-4.32,11.31,0,15.62l7.81,7.83Zm-7.81,7.8l-7.82-7.8c-4.31-4.32-11.3-4.32-15.62,0-4.32,4.31-4.32,11.31,0,15.62,4.32,4.32,11.31,4.32,15.62,0l7.82-7.82Z"/>
    <polygon class="uuid-2df5370e-d36e-4207-8074-46fee8ba42a8" points="180.66 179.79 193.28 179.79 215.71 214.23 215.85 214.23 215.85 179.79 224.97 179.79 224.97 225.55 212.57 225.55 189.92 191.66 189.78 191.66 189.78 225.55 180.66 225.55 180.66 179.79"/>
    <path class="uuid-2df5370e-d36e-4207-8074-46fee8ba42a8" d="m262.59,225.06c-3.63.82-7.26,1.31-12.01,1.31-12.01,0-18.85-7.42-18.85-17.85s5.83-17.9,17.69-17.9c9.27,0,16.61,4.67,16.61,15.71v2.68h-24.69v1.08c0,6.39,4.73,9.96,10.91,9.96,3.91,0,7.61-1.03,11.26-2.21l-.9,7.21Zm-5.7-20.64c0-4.87-2.19-7.96-7.47-7.96-4.93,0-7.74,3.49-8.09,7.96h15.56Z"/>
    <path class="uuid-2df5370e-d36e-4207-8074-46fee8ba42a8" d="m298.19,219.93l-.14.13c-2.74,4.18-6.31,6.31-11.87,6.31-8.92,0-15.23-6.85-15.23-16.74,0-12.9,8.51-19,20.04-19,2.27,0,4.46.41,6.72.62v-11.46h9.6v45.76h-9.13v-5.62Zm-.48-21.82c-1.58-.48-3.16-.77-4.74-.77-9.12,0-12.41,5.29-12.41,11.6s3.08,10.7,8.56,10.7c4.95,0,8.59-5.28,8.59-10.56v-10.97Z"/>
    <path class="uuid-2df5370e-d36e-4207-8074-46fee8ba42a8" d="m344.6,225.06c-3.63.82-7.27,1.31-12,1.31-11.99,0-18.86-7.42-18.86-17.85s5.83-17.9,17.69-17.9c9.28,0,16.61,4.67,16.61,15.71v2.68h-24.7v1.08c0,6.39,4.75,9.96,10.91,9.96,3.9,0,7.62-1.03,11.24-2.21l-.89,7.21Zm-5.69-20.64c0-4.87-2.19-7.96-7.48-7.96-4.93,0-7.74,3.49-8.09,7.96h15.57Z"/>
    <path class="uuid-2df5370e-d36e-4207-8074-46fee8ba42a8" d="m363.71,195.84l.14.14c1.84-3.22,4.58-5.35,8.83-5.35,1.04,0,2,.13,2.96.34l.82,7.9c-1.45-.35-2.6-.55-3.92-.55-4.94,0-8.36,3.01-8.36,9.95v17.29h-9.61v-34.1h9.12v4.39Z"/>
    <polygon class="uuid-2df5370e-d36e-4207-8074-46fee8ba42a8" points="377.16 191.46 386.22 191.46 394.94 216.43 395.08 216.43 402.75 191.46 412.14 191.46 419.62 216.43 419.77 216.43 428.26 191.46 437.24 191.46 424.01 225.55 414.47 225.55 407.42 201.27 407.27 201.27 399.59 225.55 390.26 225.55 377.16 191.46"/>
    <path class="uuid-2df5370e-d36e-4207-8074-46fee8ba42a8" d="m469.78,225.06c-3.64.82-7.26,1.31-12,1.31-12,0-18.87-7.42-18.87-17.85s5.84-17.9,17.7-17.9c9.26,0,16.61,4.67,16.61,15.71v2.68h-24.69v1.08c0,6.39,4.72,9.96,10.9,9.96,3.91,0,7.61-1.03,11.26-2.21l-.9,7.21Zm-5.69-20.64c0-4.87-2.19-7.96-7.49-7.96-4.93,0-7.74,3.49-8.08,7.96h15.57Z"/>
    <path class="uuid-2df5370e-d36e-4207-8074-46fee8ba42a8" d="m509.43,225.06c-3.63.82-7.27,1.31-12,1.31-12,0-18.86-7.42-18.86-17.85s5.82-17.9,17.7-17.9c9.26,0,16.6,4.67,16.6,15.71v2.68h-24.7v1.08c0,6.39,4.73,9.96,10.91,9.96,3.91,0,7.61-1.03,11.23-2.21l-.88,7.21Zm-5.69-20.64c0-4.87-2.2-7.96-7.47-7.96-4.94,0-7.75,3.49-8.1,7.96h15.57Z"/>
    <path class="uuid-2df5370e-d36e-4207-8074-46fee8ba42a8" d="m527.94,195.84l.13.14c1.85-3.22,4.59-5.35,8.85-5.35,1.04,0,1.98.13,2.94.34l.84,7.9c-1.44-.35-2.61-.55-3.93-.55-4.94,0-8.35,3.01-8.35,9.95v17.29h-9.61v-34.1h9.13v4.39Z"/>
    <path class="uuid-2df5370e-d36e-4207-8074-46fee8ba42a8" d="m566.26,191.46v6.73h-8.65v15.16c0,3.44.83,5.76,4.27,5.76,1.69,0,3.41-.21,5.05-.63l-1.09,6.87c-2.41.69-4.87,1.03-7.68,1.03-6.58,0-10.15-2.13-10.15-8.86v-19.34h-4.81v-6.73h4.81v-5.9l9.6-2.27v8.16h8.65Z"/>
  </g>
  <g>
    <path class="uuid-2df5370e-d36e-4207-8074-46fee8ba42a8" d="m181.21,277.53c1.18.77,2.88,1.15,3.74,1.15,1.38,0,3.07-.58,3.07-2.34,0-2.97-7.07-2.72-7.07-7.29,0-3.39,2.53-5.02,5.76-5.02,1.41,0,2.56.29,3.74.64l-.26,2.62c-.67-.42-2.46-.83-3.17-.83-1.54,0-2.88.64-2.88,1.98,0,3.33,7.07,2.37,7.07,7.58,0,3.49-2.78,5.09-5.7,5.09-1.54,0-3.1-.16-4.48-.89l.16-2.69Z"/>
    <path class="uuid-2df5370e-d36e-4207-8074-46fee8ba42a8" d="m199.13,265.57c1.5-.89,3.3-1.54,5.38-1.54,4.67,0,6.56,2.3,6.56,6.75v6.75c0,1.86.06,2.72.13,3.2h-2.82v-2.11h-.06c-.7.99-2.3,2.5-5.06,2.5-3.52,0-5.98-1.54-5.98-5.09,0-4.1,4.48-5.37,7.58-5.37,1.18,0,2.02,0,3.2.06,0-2.82-1.02-4.26-4.03-4.26-1.7,0-3.52.64-4.74,1.66l-.16-2.56Zm8.93,7.39c-.64,0-1.28-.06-1.92-.06-1.63,0-5.66.26-5.66,3.13,0,1.73,1.66,2.66,3.04,2.66,2.98,0,4.54-1.86,4.54-4.29v-1.44Z"/>
    <path class="uuid-2df5370e-d36e-4207-8074-46fee8ba42a8" d="m219.61,264.42h2.82v2.37h.06c1.15-1.89,2.78-2.75,5.18-2.75,1.89,0,3.78.96,4.64,3.17,1.12-2.34,3.58-3.17,5.06-3.17,4.16,0,5.66,2.69,5.66,6.24v10.46h-3.01v-9.73c0-2.02-.48-4.54-2.91-4.54-3.07,0-4.29,3.01-4.29,6.05v8.22h-3.01v-9.73c0-2.02-.48-4.54-2.91-4.54-3.07,0-4.29,3.01-4.29,6.05v8.22h-3.01v-16.32Z"/>
    <path class="uuid-2df5370e-d36e-4207-8074-46fee8ba42a8" d="m264.09,280.06c-1.15.42-2.46,1.05-5.15,1.05-5.79,0-8.45-3.52-8.45-8.83,0-4.83,3.04-8.26,7.65-8.26,5.44,0,7.2,3.97,7.2,9.21h-11.65c0,3.23,2.53,5.44,5.37,5.44,1.98,0,4.29-1.02,5.02-1.63v3.01Zm-1.95-9.06c0-2.49-1.47-4.54-4.06-4.54-2.94,0-4.16,2.43-4.38,4.54h8.45Z"/>
    <path class="uuid-2df5370e-d36e-4207-8074-46fee8ba42a8" d="m272.86,264.42h2.91v2.59h.06c.9-1.86,3.07-2.98,5.34-2.98,4.22,0,6.11,2.62,6.11,7.01v9.7h-3.01v-8.45c0-3.81-.83-5.66-3.46-5.82-3.42,0-4.96,2.75-4.96,6.72v7.55h-3.01v-16.32Z"/>
    <path class="uuid-2df5370e-d36e-4207-8074-46fee8ba42a8" d="m322.71,280.03c0,4.96-2.56,7.81-8.42,7.81-1.73,0-3.23-.22-5.86-1.12l.32-2.78c2.3,1.06,3.68,1.47,5.89,1.47,3.17,0,5.06-2.14,5.06-5.6v-1.6h-.06c-1.28,1.7-3.39,2.53-5.47,2.53-4.67,0-6.98-3.81-6.98-8.03s2.37-8.67,7.3-8.67c2.88,0,4.48,1.06,5.37,2.82h.06v-2.43h2.78v15.61Zm-3.01-7.26c0-3.39-1.57-6.3-4.77-6.3s-4.54,3.29-4.54,6.08c0,3.07,1.73,5.76,4.54,5.76s4.77-2.5,4.77-5.54Z"/>
    <path class="uuid-2df5370e-d36e-4207-8074-46fee8ba42a8" d="m331.32,264.42h2.82v2.53h.06c.8-1.7,2.53-2.91,4.26-2.91.9,0,1.34.1,1.98.22v2.69c-.54-.22-1.15-.29-1.66-.29-2.69,0-4.45,2.56-4.45,6.66v7.42h-3.01v-16.32Z"/>
    <path class="uuid-2df5370e-d36e-4207-8074-46fee8ba42a8" d="m354.49,264.03c4.96,0,8.29,3.58,8.29,8.54,0,4.67-3.39,8.54-8.29,8.54s-8.32-3.87-8.32-8.54c0-4.96,3.33-8.54,8.32-8.54Zm0,14.65c3.52,0,5.09-3.2,5.09-6.11,0-3.1-1.89-6.11-5.09-6.11s-5.12,3.01-5.12,6.11c0,2.91,1.57,6.11,5.12,6.11Z"/>
    <path class="uuid-2df5370e-d36e-4207-8074-46fee8ba42a8" d="m377.53,264.03c4.96,0,8.29,3.58,8.29,8.54,0,4.67-3.39,8.54-8.29,8.54s-8.32-3.87-8.32-8.54c0-4.96,3.33-8.54,8.32-8.54Zm0,14.65c3.52,0,5.09-3.2,5.09-6.11,0-3.1-1.89-6.11-5.09-6.11s-5.12,3.01-5.12,6.11c0,2.91,1.57,6.11,5.12,6.11Z"/>
    <path class="uuid-2df5370e-d36e-4207-8074-46fee8ba42a8" d="m402.01,266.85h-4.32v8.93c0,1.89,1.15,2.91,2.53,2.91.93,0,1.6-.29,2.05-.58v2.56c-.67.19-1.6.45-2.56.45-3.1,0-5.02-1.47-5.02-4.73v-9.54h-3.68v-2.43h3.68v-3.78l3.01-.96v4.74h4.32v2.43Z"/>
    <path class="uuid-2df5370e-d36e-4207-8074-46fee8ba42a8" d="m408.05,277.53c1.18.77,2.88,1.15,3.74,1.15,1.38,0,3.07-.58,3.07-2.34,0-2.97-7.07-2.72-7.07-7.29,0-3.39,2.53-5.02,5.76-5.02,1.41,0,2.56.29,3.74.64l-.26,2.62c-.67-.42-2.46-.83-3.17-.83-1.54,0-2.88.64-2.88,1.98,0,3.33,7.07,2.37,7.07,7.58,0,3.49-2.78,5.09-5.7,5.09-1.54,0-3.1-.16-4.48-.89l.16-2.69Z"/>
    <path class="uuid-2df5370e-d36e-4207-8074-46fee8ba42a8" d="m425.3,277.15h3.58l-2.72,7.84h-2.88l2.02-7.84Z"/>
    <path class="uuid-2df5370e-d36e-4207-8074-46fee8ba42a8" d="m448.76,277.53c1.18.77,2.88,1.15,3.74,1.15,1.37,0,3.07-.58,3.07-2.34,0-2.97-7.07-2.72-7.07-7.29,0-3.39,2.53-5.02,5.76-5.02,1.41,0,2.56.29,3.74.64l-.26,2.62c-.67-.42-2.46-.83-3.17-.83-1.54,0-2.88.64-2.88,1.98,0,3.33,7.07,2.37,7.07,7.58,0,3.49-2.79,5.09-5.7,5.09-1.54,0-3.11-.16-4.48-.89l.16-2.69Z"/>
    <path class="uuid-2df5370e-d36e-4207-8074-46fee8ba42a8" d="m466.68,265.57c1.5-.89,3.29-1.54,5.37-1.54,4.67,0,6.56,2.3,6.56,6.75v6.75c0,1.86.06,2.72.13,3.2h-2.82v-2.11h-.06c-.7.99-2.3,2.5-5.05,2.5-3.52,0-5.98-1.54-5.98-5.09,0-4.1,4.48-5.37,7.58-5.37,1.18,0,2.02,0,3.2.06,0-2.82-1.02-4.26-4.03-4.26-1.7,0-3.52.64-4.74,1.66l-.16-2.56Zm8.93,7.39c-.64,0-1.28-.06-1.92-.06-1.63,0-5.66.26-5.66,3.13,0,1.73,1.66,2.66,3.04,2.66,2.98,0,4.54-1.86,4.54-4.29v-1.44Z"/>
    <path class="uuid-2df5370e-d36e-4207-8074-46fee8ba42a8" d="m487.16,264.42h2.82v2.37h.06c1.15-1.89,2.78-2.75,5.18-2.75,1.89,0,3.78.96,4.64,3.17,1.12-2.34,3.58-3.17,5.06-3.17,4.16,0,5.66,2.69,5.66,6.24v10.46h-3.01v-9.73c0-2.02-.48-4.54-2.91-4.54-3.07,0-4.29,3.01-4.29,6.05v8.22h-3.01v-9.73c0-2.02-.48-4.54-2.91-4.54-3.07,0-4.29,3.01-4.29,6.05v8.22h-3.01v-16.32Z"/>
    <path class="uuid-2df5370e-d36e-4207-8074-46fee8ba42a8" d="m531.64,280.06c-1.15.42-2.46,1.05-5.15,1.05-5.79,0-8.45-3.52-8.45-8.83,0-4.83,3.04-8.26,7.65-8.26,5.44,0,7.2,3.97,7.2,9.21h-11.65c0,3.23,2.53,5.44,5.38,5.44,1.98,0,4.29-1.02,5.03-1.63v3.01Zm-1.95-9.06c0-2.49-1.47-4.54-4.06-4.54-2.95,0-4.16,2.43-4.38,4.54h8.45Z"/>
    <path class="uuid-2df5370e-d36e-4207-8074-46fee8ba42a8" d="m540.41,264.42h2.91v2.59h.06c.9-1.86,3.07-2.98,5.34-2.98,4.22,0,6.11,2.62,6.11,7.01v9.7h-3.01v-8.45c0-3.81-.83-5.66-3.45-5.82-3.42,0-4.96,2.75-4.96,6.72v7.55h-3.01v-16.32Z"/>
    <path class="uuid-2df5370e-d36e-4207-8074-46fee8ba42a8" d="m587.38,278.43h-.06c-.8,1.22-2.66,2.69-5.57,2.69-4.93,0-7.01-4.38-7.01-8.83s2.3-8.26,7.04-8.26c2.85,0,4.48,1.12,5.41,2.62h.06v-9.92h3.01v24h-2.88v-2.3Zm-4.93.26c3.39,0,4.8-3.36,4.8-6.08,0-3.04-1.57-6.14-4.83-6.14s-4.54,3.07-4.48,6.05c-.06,2.56,1.28,6.18,4.51,6.18Z"/>
    <path class="uuid-2df5370e-d36e-4207-8074-46fee8ba42a8" d="m606.1,264.03c4.96,0,8.29,3.58,8.29,8.54,0,4.67-3.39,8.54-8.29,8.54s-8.32-3.87-8.32-8.54c0-4.96,3.33-8.54,8.32-8.54Zm0,14.65c3.52,0,5.09-3.2,5.09-6.11,0-3.1-1.89-6.11-5.09-6.11s-5.12,3.01-5.12,6.11c0,2.91,1.57,6.11,5.12,6.11Z"/>
    <path class="uuid-2df5370e-d36e-4207-8074-46fee8ba42a8" d="m634.42,280.06c-1.15.42-2.46,1.05-5.15,1.05-5.79,0-8.45-3.52-8.45-8.83,0-4.83,3.04-8.26,7.65-8.26,5.44,0,7.2,3.97,7.2,9.21h-11.65c0,3.23,2.53,5.44,5.37,5.44,1.98,0,4.29-1.02,5.03-1.63v3.01Zm-1.95-9.06c0-2.49-1.47-4.54-4.06-4.54-2.95,0-4.16,2.43-4.38,4.54h8.45Z"/>
    <path class="uuid-2df5370e-d36e-4207-8074-46fee8ba42a8" d="m643.19,264.42h2.91v2.59h.06c.9-1.86,3.07-2.98,5.34-2.98,4.22,0,6.11,2.62,6.11,7.01v9.7h-3.01v-8.45c0-3.81-.83-5.66-3.45-5.82-3.42,0-4.96,2.75-4.96,6.72v7.55h-3.01v-16.32Z"/>
    <path class="uuid-2df5370e-d36e-4207-8074-46fee8ba42a8" d="m671.28,274.46h-2.75l-.42-16.06h3.58l-.42,16.06Zm-3.17,2.69h3.58v3.58h-3.58v-3.58Z"/>
  </g>
</svg>