<svg width="150" height="110" viewBox="0 0 150 110" fill="none" xmlns="http://www.w3.org/2000/svg">
<g clip-path="url(#clip0_4286_784)">
<path d="M17.4858 53.9608L14.013 56.0323C13.3428 54.8747 12.7335 54.1436 12.1852 53.839C11.576 53.4734 10.7839 53.2297 9.8091 53.2297C8.59058 53.2297 7.61576 53.5952 6.82372 54.2654C6.03168 54.9356 5.66612 55.7886 5.66612 56.7634C5.66612 58.1647 6.70187 59.2614 8.77335 60.1143L11.576 61.2719C13.8911 62.1858 15.5971 63.3434 16.6328 64.6838C17.7295 66.0242 18.2169 67.6692 18.2169 69.6188C18.2169 72.2386 17.3639 74.371 15.5971 76.077C13.8302 77.7829 11.6978 78.6359 9.07798 78.6359C6.64094 78.6359 4.56946 77.9047 2.98538 76.4425C1.4013 74.9803 0.426482 72.9088 0 70.289L4.32575 69.3142C4.50853 70.9592 4.87409 72.1168 5.36149 72.787C6.21446 74.0055 7.55483 74.6147 9.19984 74.6147C10.5402 74.6147 11.6369 74.1883 12.5508 73.2744C13.4037 72.3605 13.8911 71.2638 13.8911 69.8625C13.8911 69.3142 13.8302 68.8268 13.6474 68.3394C13.4647 67.8519 13.2819 67.4864 12.9163 67.0599C12.6117 66.6944 12.1852 66.3288 11.6369 65.9632C11.1495 65.5977 10.4793 65.2931 9.8091 64.9884L7.06742 63.8308C3.16816 62.1858 1.21852 59.8097 1.21852 56.6415C1.21852 54.5091 2.01056 52.7423 3.65556 51.2801C5.30057 49.8178 7.31113 49.0867 9.74817 49.0867C13.0991 49.2086 15.658 50.7926 17.4858 53.9608ZM21.7506 69.0705C21.7506 66.5116 22.6645 64.2573 24.5532 62.4905C26.381 60.6627 28.6353 59.7488 31.316 59.7488C33.9967 59.7488 36.251 60.6627 38.1397 62.4905C39.9675 64.3182 40.8814 66.5725 40.8814 69.1923C40.8814 71.8731 39.9675 74.1273 38.0788 75.9551C36.1901 77.7829 33.9358 78.6359 31.1942 78.6359C28.5134 78.6359 26.2591 77.722 24.4314 75.8942C22.6645 74.0664 21.7506 71.8121 21.7506 69.0705ZM25.9545 69.1314C25.9545 70.8983 26.4419 72.3605 27.4167 73.3962C28.3916 74.432 29.671 74.9803 31.316 74.9803C32.961 74.9803 34.2405 74.432 35.2153 73.3962C36.1901 72.3605 36.6775 70.9592 36.6775 69.1923C36.6775 67.4255 36.1901 66.0851 35.2153 64.9884C34.2405 63.9527 32.961 63.4043 31.316 63.4043C29.7319 63.4043 28.4525 63.9527 27.4777 64.9884C26.4419 66.0851 25.9545 67.4255 25.9545 69.1314ZM45.2071 60.2362H49.3501V61.8812C50.1422 61.0282 50.8123 60.4799 51.4216 60.1753C52.0309 59.8706 52.762 59.6879 53.6759 59.6879C55.6864 59.6879 57.2705 60.5408 58.489 62.3077C59.7685 60.5408 61.5353 59.6879 63.7896 59.6879C67.8107 59.6879 69.8213 62.1249 69.8213 66.999V78.0875H65.6783V68.1566C65.6783 66.4506 65.4955 65.2321 65.069 64.501C64.6426 63.7699 63.9115 63.4043 62.9366 63.4043C61.779 63.4043 60.987 63.8308 60.4387 64.6838C59.8903 65.5368 59.6466 66.9381 59.6466 68.8268V78.0875H55.4427V68.2175C55.4427 65.0493 54.5288 63.4653 52.7011 63.4653C51.5435 63.4653 50.6905 63.8918 50.1422 64.7447C49.5938 65.5977 49.3501 66.999 49.3501 68.8877V78.1485H45.2071V60.2362ZM91.3282 70.1671H78.4728C78.5946 71.6294 79.082 72.787 79.935 73.7008C80.788 74.5538 81.8846 74.9803 83.1641 74.9803C84.1998 74.9803 85.0528 74.7366 85.723 74.2492C86.3932 73.7618 87.1243 72.8479 87.9772 71.5075L91.45 73.4571C90.9017 74.371 90.3534 75.1631 89.7441 75.8333C89.1348 76.5035 88.5256 77.0518 87.7945 77.4783C87.1243 77.9048 86.3932 78.2094 85.5402 78.3922C84.7482 78.5749 83.8952 78.6968 82.9204 78.6968C80.2396 78.6968 78.1072 77.8438 76.4622 76.1379C74.8172 74.432 74.0252 72.1168 74.0252 69.2533C74.0252 66.4507 74.8172 64.1355 76.4013 62.3686C77.9854 60.6627 80.0569 59.7488 82.6767 59.7488C85.2965 59.7488 87.368 60.6017 88.9521 62.2468C90.4752 63.8918 91.2063 66.2069 91.2063 69.1923L91.3282 70.1671ZM87.0634 66.7553C86.515 64.5619 85.1137 63.4653 82.8595 63.4653C82.3721 63.4653 81.8846 63.5262 81.4582 63.709C81.0317 63.8918 80.6052 64.0745 80.2396 64.3792C79.8741 64.6838 79.5695 64.9884 79.3257 65.4149C79.082 65.8414 78.8993 66.2679 78.7165 66.8162H87.0634V66.7553ZM95.8367 60.2362H99.9797V61.8203C100.711 61.0282 101.442 60.4799 101.99 60.1753C102.6 59.8706 103.331 59.6879 104.123 59.6879C105.219 59.6879 106.377 60.0534 107.535 60.7845L105.646 64.5619C104.854 64.0136 104.123 63.709 103.331 63.709C101.076 63.709 99.9188 65.4149 99.9188 68.8268V78.0875H95.7758V60.2362H95.8367ZM125.995 70.1671H113.14C113.262 71.6294 113.749 72.787 114.602 73.7008C115.455 74.5538 116.552 74.9803 117.831 74.9803C118.867 74.9803 119.72 74.7366 120.39 74.2492C121.06 73.7618 121.791 72.8479 122.644 71.5075L126.117 73.4571C125.569 74.371 125.02 75.1631 124.411 75.8333C123.802 76.5035 123.193 77.0518 122.461 77.4783C121.791 77.9048 121.06 78.2094 120.207 78.3922C119.415 78.5749 118.562 78.6968 117.587 78.6968C114.907 78.6968 112.774 77.8438 111.129 76.1379C109.484 74.432 108.692 72.1168 108.692 69.2533C108.692 66.4507 109.484 64.1355 111.068 62.3686C112.652 60.6627 114.724 59.7488 117.344 59.7488C119.963 59.7488 122.035 60.6017 123.619 62.2468C125.142 63.8918 125.873 66.2069 125.873 69.1923L125.995 70.1671ZM121.73 66.7553C121.182 64.5619 119.781 63.4653 117.526 63.4653C117.039 63.4653 116.552 63.5262 116.125 63.709C115.699 63.8918 115.272 64.0745 114.907 64.3792C114.541 64.6838 114.236 64.9884 113.993 65.4149C113.749 65.8414 113.566 66.2679 113.383 66.8162H121.73V66.7553ZM130.504 60.2362H134.647V61.8812C136.109 60.419 137.754 59.7488 139.521 59.7488C141.592 59.7488 143.237 60.419 144.395 61.6984C145.431 62.7951 145.918 64.6229 145.918 67.1818V78.1485H141.775V68.1566C141.775 66.3897 141.531 65.1712 141.044 64.501C140.556 63.8308 139.703 63.4653 138.424 63.4653C137.023 63.4653 136.048 63.8918 135.5 64.8056C134.951 65.7195 134.647 67.2427 134.647 69.497V78.1485H130.504V60.2362Z" fill="black"/>
<path d="M87.6117 109.343C110.825 108.672 136.353 112.084 150 88.9933C144.395 87.4092 139.155 86.8 134.159 86.8C105.341 86.8 87.6117 109.343 87.6117 109.343Z" fill="url(#paint0_linear_4286_784)"/>
<path d="M87.6117 109.343C109.972 108.733 137.266 112.389 149.939 89.1151C111.677 91.2476 87.6117 109.343 87.6117 109.343Z" fill="url(#paint1_linear_4286_784)"/>
<path d="M19.1308 35.6221C19.0698 35.5611 19.0698 35.5611 19.0089 35.5611C18.6433 35.2565 18.2778 35.1346 17.9732 35.1346C17.4858 35.1346 17.1202 35.4393 17.1202 35.4393C16.8765 35.6221 16.8156 35.8048 16.7546 36.0485C16.7546 36.475 17.0593 37.0843 17.6685 37.6326C23.1519 41.471 30.2193 43.6034 37.5304 43.6034C38.9317 43.6034 40.394 43.5424 41.8562 43.3597C41.7343 43.3597 41.6734 43.3597 41.5516 43.3597C33.0828 43.3597 25.1015 40.618 19.1308 35.6221Z" fill="#9C9E9F"/>
<path d="M24.0658 34.0989C32.6564 19.4766 57.5751 21.609 49.5329 0.528625C37.8351 7.4742 25.7108 19.7813 24.0658 34.0989Z" fill="url(#paint2_linear_4286_784)"/>
<path d="M24.0658 34.0989C31.1332 22.1574 51.7262 21.4872 51.117 7.53513C30.7677 16.9177 24.0658 34.0989 24.0658 34.0989Z" fill="url(#paint3_linear_4286_784)"/>
<path d="M37.5914 25.4474C37.4696 25.5083 37.3477 25.5692 37.2259 25.6302C31.0114 28.25 27.234 31.8446 25.0406 34.83C32.2299 30.5043 42.039 26.6659 55.3209 25.0818H55.4428C55.4428 25.0818 55.3818 25.0818 55.3209 25.0818C55.3818 25.0818 55.4428 25.0818 55.5646 25.0209C55.3209 25.0818 55.1381 25.0818 54.9554 25.1428C52.0309 25.6911 36.7994 28.7983 25.8327 37.2061C29.732 38.7902 34.8498 39.4604 40.394 38.8511C41.8563 38.6684 43.3185 38.4246 44.7198 38.12C47.035 37.1452 49.3502 35.8658 51.4216 34.2207C53.2494 32.7585 54.8335 31.4181 56.2957 30.1996C56.7831 30.0778 57.2705 29.895 57.758 29.7122C63.9115 27.3361 68.7856 20.6952 68.7856 20.6952C68.3591 20.6952 67.628 20.6342 66.7141 20.6342C61.4744 20.6952 49.3502 21.1826 37.5914 25.4474Z" fill="url(#paint4_linear_4286_784)"/>
<path d="M25.8328 37.2061C25.8328 37.2061 49.2284 47.99 68.7856 20.6952C68.7856 20.6952 42.7702 39.1558 25.8328 37.2061Z" fill="url(#paint5_linear_4286_784)"/>
<path d="M73.5988 50.3662V43.7861H77.4371V44.7H74.7563V46.5278H77.3152V47.3808H74.7563V49.4523H77.4371V50.3662H73.5988Z" fill="#9C9E9F"/>
<path d="M97.177 50.3662V43.7861H101.015V44.7H98.3346V46.5278H100.893V47.3808H98.3346V49.4523H101.015V50.3662H97.177Z" fill="#9C9E9F"/>
<path d="M107.474 50.3662V43.7861H111.312V44.7H108.631V46.5278H111.19V47.3808H108.631V49.4523H111.312V50.3662H107.474Z" fill="#9C9E9F"/>
<path d="M122.157 50.3662L119.659 46.6497C119.354 46.1622 119.05 45.7358 118.867 45.2484C118.928 45.9185 118.928 47.198 118.928 48.1728V50.3662H117.77V43.7861H119.293L121.73 47.3808C122.035 47.8682 122.34 48.4165 122.644 48.843C122.583 48.1119 122.583 46.7106 122.583 45.7358V43.7861H123.741V50.3662H122.157Z" fill="#9C9E9F"/>
<path d="M132.758 44.7V50.3662H131.6V44.7H129.59V43.7861H134.768V44.7H132.758Z" fill="#9C9E9F"/>
<path d="M140.557 50.3662V43.7861H144.456V44.7H141.775V46.5278H144.334V47.3808H141.775V49.4523H144.456V50.3662H140.557Z" fill="#9C9E9F"/>
<path d="M67.0797 47.9291V46.9543H65.9221H64.8863V47.9291H65.9221V49.3913C65.5565 49.5132 65.191 49.5741 64.7645 49.5741C63.1804 49.5741 62.2056 48.6602 62.2056 47.198C62.2056 45.553 63.3632 44.7 64.8863 44.7C65.5565 44.7 66.2267 44.8219 66.836 45.0656L67.0187 44.0908C66.3486 43.908 65.6784 43.7861 65.0082 43.7861C62.5102 43.7861 60.9871 45.2484 60.9871 47.3198C60.9871 49.3304 62.3884 50.5489 64.6426 50.5489C65.4956 50.5489 66.3486 50.4271 67.0797 50.1224V47.9291Z" fill="#9C9E9F"/>
<path d="M87.1853 48.9649L87.1244 49.0867L86.9416 48.5384L85.1138 43.8471H83.7734V50.3052H84.8092V45.9795H84.931L86.637 50.3052H87.6727L89.3786 46.0404H89.5005V50.3052H90.5362V43.8471H89.1959L87.4899 48.4775C87.3072 48.6602 87.2462 48.7821 87.1853 48.9649Z" fill="#9C9E9F"/>
</g>
<defs>
<linearGradient id="paint0_linear_4286_784" x1="87.6378" y1="98.067" x2="150.016" y2="98.067" gradientUnits="userSpaceOnUse">
<stop stop-color="#304F23"/>
<stop offset="0.0732677" stop-color="#435F1F"/>
<stop offset="0.3102" stop-color="#7D8E12"/>
<stop offset="0.5131" stop-color="#A7B008"/>
<stop offset="0.6719" stop-color="#C0C502"/>
<stop offset="0.7669" stop-color="#CACD00"/>
<stop offset="0.9202" stop-color="#D4D700"/>
<stop offset="1" stop-color="#D4D700"/>
</linearGradient>
<linearGradient id="paint1_linear_4286_784" x1="87.6378" y1="99.2401" x2="149.95" y2="99.2401" gradientUnits="userSpaceOnUse">
<stop stop-color="#24401B"/>
<stop offset="0.0184021" stop-color="#24401B"/>
<stop offset="0.1389" stop-color="#324D19"/>
<stop offset="0.3688" stop-color="#597012"/>
<stop offset="0.6816" stop-color="#96A708"/>
<stop offset="0.8896" stop-color="#C2CF00"/>
<stop offset="1" stop-color="#C2CF00"/>
</linearGradient>
<linearGradient id="paint2_linear_4286_784" x1="49.2389" y1="-16.3233" x2="25.902" y2="58.5562" gradientUnits="userSpaceOnUse">
<stop stop-color="#194871"/>
<stop offset="0.1166" stop-color="#194871"/>
<stop offset="0.1465" stop-color="#1A4E77"/>
<stop offset="0.4266" stop-color="#267DA8"/>
<stop offset="0.6722" stop-color="#2EA0CC"/>
<stop offset="0.8717" stop-color="#33B5E2"/>
<stop offset="1" stop-color="#35BDEA"/>
</linearGradient>
<linearGradient id="paint3_linear_4286_784" x1="39.5432" y1="-14.1909" x2="34.6744" y2="74.2878" gradientUnits="userSpaceOnUse">
<stop stop-color="#1A4870"/>
<stop offset="0.22" stop-color="#1A4870"/>
<stop offset="0.3105" stop-color="#1F608A"/>
<stop offset="0.454" stop-color="#278DBA"/>
<stop offset="1" stop-color="#278DBA"/>
</linearGradient>
<linearGradient id="paint4_linear_4286_784" x1="25.0436" y1="29.8891" x2="68.8154" y2="29.8891" gradientUnits="userSpaceOnUse">
<stop stop-color="#C18900"/>
<stop offset="0.0748984" stop-color="#C89500"/>
<stop offset="0.3525" stop-color="#E0BB00"/>
<stop offset="0.6083" stop-color="#F1D700"/>
<stop offset="0.8324" stop-color="#FBE800"/>
<stop offset="1" stop-color="#FFEE00"/>
</linearGradient>
<linearGradient id="paint5_linear_4286_784" x1="25.8571" y1="30.0219" x2="68.8154" y2="30.0219" gradientUnits="userSpaceOnUse">
<stop stop-color="#C17C07"/>
<stop offset="0.0490723" stop-color="#C17C07"/>
<stop offset="0.1043" stop-color="#BE7508"/>
<stop offset="0.5844" stop-color="#E2B804"/>
<stop offset="1" stop-color="#FFEE00"/>
</linearGradient>
<clipPath id="clip0_4286_784">
<rect width="150" height="108.814" fill="white" transform="translate(0 0.528625)"/>
</clipPath>
</defs>
</svg>
